<svg height="512" viewBox="0 0 58 58" width="512" xmlns="http://www.w3.org/2000/svg"><g id="Page-1" fill="none" fill-rule="evenodd"><g id="048---Data-Lake" fill-rule="nonzero"><rect id="Rectangle-path" fill="#547580" height="12" rx="2" width="40" x="9"/><circle id="Oval" cx="15" cy="6" fill="#f0c419" r="2"/><circle id="Oval" cx="21" cy="6" fill="#ff5364" r="1"/><path id="Shape" d="m45 7h-16c-.5522847 0-1-.44771525-1-1s.4477153-1 1-1h16c.5522847 0 1 .44771525 1 1s-.4477153 1-1 1z" fill="#3f5c6c"/><rect id="Rectangle-path" fill="#547580" height="12" rx="2" width="40" x="9" y="16"/><circle id="Oval" cx="15" cy="22" fill="#f0c419" r="2"/><circle id="Oval" cx="21" cy="22" fill="#ff5364" r="1"/><path id="Shape" d="m45 23h-16c-.5522847 0-1-.4477153-1-1s.4477153-1 1-1h16c.5522847 0 1 .4477153 1 1s-.4477153 1-1 1z" fill="#3f5c6c"/><path id="Rectangle-path" d="m11 12h36v4h-36z" fill="#35495e"/><path id="Shape" d="m9 41v-7c.0032948-1.1032019.89679813-1.9967052 2-2h36c1.1032019.0032948 1.9967052.8967981 2 2v7z" fill="#547580"/><path id="Rectangle-path" d="m11 28h36v4h-36z" fill="#35495e"/><path id="Shape" d="m58 38c-.4440356.6260535-1.1639646.9980614-1.9315.9980614s-1.4874644-.3720079-1.9315-.9980614c-.4631495-.596736-1.1761184-.9458893-1.9315-.9458893s-1.4683505.3491533-1.9315.9458893c-.4628795.6009378-1.1784596.9530027-1.937.9530027s-1.4741205-.3520649-1.937-.9530027c-.4631495-.596736-1.1761184-.9458893-1.9315-.9458893s-1.4683505.3491533-1.9315.9458893-1.1761184.9458893-1.9315.9458893-1.4683505-.3491533-1.9315-.9458893c-.4628795-.6009378-1.1784596-.9530027-1.937-.9530027s-1.4741205.3520649-1.937.9530027c-.4631495.596736-1.1761184.9458893-1.9315.9458893s-1.4683505-.3491533-1.9315-.9458893c-.4633525-.5967593-1.1764755-.9459027-1.932-.9459027s-1.4686475.3491434-1.932.9459027c-.4629051.6005547-1.1782474.9523538-1.9365.9523538s-1.4735949-.3517991-1.9365-.9523538c-.4631495-.596736-1.1761184-.9458893-1.9315-.9458893s-1.4683505.3491533-1.9315.9458893-1.1761184.9458893-1.9315.9458893-1.4683505-.3491533-1.9315-.9458893c-.4628795-.6009378-1.1784596-.9530027-1.937-.9530027s-1.4741205.3520649-1.937.9530027c-.4631495.596736-1.1761184.9458893-1.9315.9458893-.75538162 0-1.46835045-.3491533-1.9315-.9458893s-1.17611838-.9458893-1.9315-.9458893-1.46835045.3491533-1.9315.9458893c-.44344804.6305901-1.16609791 1.0058491-1.937 1.0058491s-1.49355196-.375259-1.937-1.0058491v18c0 1.1045695.8954305 2 2 2h54c1.1045695 0 2-.8954305 2-2z" fill="#2fa8cc"/><g fill="#2980ba"><path id="Shape" d="m12 46c-1.0803943-.0166375-2.09663338-.5159521-2.77-1.361-.29263173-.3876197-.7446057-.6224256-1.23-.639-.48437456.0147794-.93595106.2482901-1.228.635-.22757818.2754518-.58482086.4085682-.93715819.3492056s-.64624088-.3021856-.77100002-.637-.06141999-.7107538.16615821-.9862056c.67336662-.8450479 1.68960571-1.3443625 2.77-1.361 1.08007601.0167941 2.0959453.5161073 2.769 1.361.2895073.3884712.7455164.6173452 1.23.6173452s.9404927-.228874 1.23-.6173452c.0207135-.0260863.0430936-.0508046.067-.074.6662994-.8082243 1.6565623-1.2795513 2.704-1.287 1.0803604.0167782 2.0965427.5160648 2.77 1.361.3518054.4258115.2918115 1.0561946-.134 1.408-.4258116.3518053-1.0561946.2918115-1.408-.134-.2896822-.3865054-.7444863-.6140001-1.2275-.6140001s-.9378178.2274947-1.2275.6140001c-.0213395.0258541-.0440382.0505556-.068.074-.6661026.8095393-1.6566818 1.2823074-2.705 1.291z"/><path id="Shape" d="m29 50c-1.0803943-.0166375-2.0966334-.5159521-2.77-1.361-.2926317-.3876197-.7446057-.6224256-1.23-.639-.4843746.0147794-.9359511.2482901-1.228.635-.2275782.2754518-.5848209.4085682-.9371582.3492056s-.6462408-.3021856-.771-.637c-.1247591-.3348144-.06142-.7107538.1661582-.9862056.6733666-.8450479 1.6896057-1.3443625 2.77-1.361 1.080076.0167941 2.0959453.5161073 2.769 1.361.2895073.3884712.7455164.6173452 1.23.6173452s.9404927-.228874 1.23-.6173452c.0207135-.0260863.0430936-.0508046.067-.074.6662994-.8082243 1.6565623-1.2795513 2.704-1.287 1.0803604.0167782 2.0965427.5160648 2.77 1.361.3518054.4258115.2918115 1.0561946-.134 1.408s-1.0561946.2918115-1.408-.134c-.2896822-.3865054-.7444863-.6140001-1.2275-.6140001s-.9378178.2274947-1.2275.6140001c-.0213395.0258541-.0440382.0505556-.068.074-.6661026.8095393-1.6566818 1.2823074-2.705 1.291z"/><path id="Shape" d="m14 55c-1.0803943-.0166375-2.0966334-.5159521-2.77-1.361-.2926317-.3876197-.7446057-.6224256-1.23-.639-.48437456.0147794-.93595106.2482901-1.228.635-.22757818.2754518-.58482086.4085682-.93715819.3492056s-.64624088-.3021856-.77100002-.637-.06141999-.7107538.16615821-.9862056c.67336662-.8450479 1.68960571-1.3443625 2.77-1.361 1.080076.0167941 2.0959453.5161073 2.769 1.361.2895073.3884712.7455164.6173452 1.23.6173452s.9404927-.228874 1.23-.6173452c.0207135-.0260863.0430936-.0508046.067-.074.6662994-.8082243 1.6565623-1.2795513 2.704-1.287 1.0803604.0167782 2.0965427.5160648 2.77 1.361.2275782.2754518.2909174.6513912.1661582.9862056-.1247591.3348144-.4186627.5776374-.771.637s-.70958-.0737538-.9371582-.3492056c-.2896822-.3865054-.7444863-.6140001-1.2275-.6140001s-.9378178.2274947-1.2275.6140001c-.0213395.0258541-.0440382.0505556-.068.074-.6661026.8095393-1.6566818 1.2823074-2.705 1.291z"/><path id="Shape" d="m44 55c-1.0803943-.0166375-2.0966334-.5159521-2.77-1.361-.2926317-.3876197-.7446057-.6224256-1.23-.639-.4843746.0147794-.9359511.2482901-1.228.635-.3518054.4258115-.9821884.4858053-1.408.134-.4258115-.3518054-.4858054-.9821885-.134-1.408.6733666-.8450479 1.6896057-1.3443625 2.77-1.361 1.080076.0167941 2.0959453.5161073 2.769 1.361.2895073.3884712.7455164.6173452 1.23.6173452s.9404927-.228874 1.23-.6173452c.0207135-.0260863.0430936-.0508046.067-.074.6662994-.8082243 1.6565623-1.2795513 2.704-1.287 1.0803604.0167782 2.0965427.5160648 2.77 1.361.2275782.2754518.2909174.6513912.1661582.9862056-.1247591.3348144-.4186627.5776374-.771.637s-.70958-.0737538-.9371582-.3492056c-.2896822-.3865054-.7444863-.6140001-1.2275-.6140001s-.9378178.2274947-1.2275.6140001c-.0213395.0258541-.0440382.0505556-.068.074-.6661026.8095393-1.6566818 1.2823074-2.705 1.291z"/><path id="Shape" d="m46 46c-1.0803943-.0166375-2.0966334-.5159521-2.77-1.361-.2926317-.3876197-.7446057-.6224256-1.23-.639-.4843746.0147794-.9359511.2482901-1.228.635-.3518054.4258115-.9821884.4858053-1.408.134-.4258115-.3518054-.4858054-.9821885-.134-1.408.6733666-.8450479 1.6896057-1.3443625 2.77-1.361 1.080076.0167941 2.0959453.5161073 2.769 1.361.2895073.3884712.7455164.6173452 1.23.6173452s.9404927-.228874 1.23-.6173452c.0207135-.0260863.0430936-.0508046.067-.074.6662994-.8082243 1.6565623-1.2795513 2.704-1.287 1.0803604.0167782 2.0965427.5160648 2.77 1.361.2275782.2754518.2909174.6513912.1661582.9862056-.1247591.3348144-.4186627.5776374-.771.637s-.70958-.0737538-.9371582-.3492056c-.2896822-.3865054-.7444863-.6140001-1.2275-.6140001s-.9378178.2274947-1.2275.6140001c-.0213395.0258541-.0440382.0505556-.068.074-.6661026.8095393-1.6566818 1.2823074-2.705 1.291z"/></g></g></g></svg>