<?xml version="1.0" encoding="iso-8859-1"?>
<!-- Generator: Adobe Illustrator 19.0.0, SVG Export Plug-In . SVG Version: 6.00 Build 0)  -->
<svg version="1.1" id="Layer_1" xmlns="http://www.w3.org/2000/svg" xmlns:xlink="http://www.w3.org/1999/xlink" x="0px" y="0px"
	 viewBox="0 0 512.001 512.001" style="enable-background:new 0 0 512.001 512.001;" xml:space="preserve">
<path style="fill:#B5E5BC;" d="M428.739,255.877c0,110.702-89.747,200.445-200.456,200.445S27.826,366.579,27.826,255.877
	S117.573,55.432,228.282,55.432S428.739,145.174,428.739,255.877z"/>
<path style="fill:#FC8059;" d="M239.891,0.011C372.117,5.908,478.265,112.05,484.163,244.269
	c0.283,6.328-4.801,11.608-11.135,11.608H228.282V11.146C228.282,4.811,233.562-0.271,239.891,0.011z"/>
<path style="fill:#84A7B7;" d="M477.651,442.484l-96.159-96.401c-8.698-8.697-22.801-8.697-31.498,0l-25.129-25.127c0,0,0,0,0,0.001
	c30.778-45.483,26.035-107.829-14.244-148.106c-45.665-45.663-119.703-45.663-165.368,0s-45.665,119.696,0,165.358
	c40.279,40.277,102.628,45.019,148.114,14.244l25.128,25.127c-8.698,8.697-8.698,22.8,0,31.497l96.159,96.401
	c8.698,8.697,22.801,8.697,31.498,0l31.499-31.497C486.349,465.282,486.349,451.181,477.651,442.484z"/>
<path style="fill:#256277;" d="M324.863,320.955l25.129,25.127l-31.499,31.497l-25.129-25.127
	c6.083-4.115,11.867-8.858,17.254-14.244C316.005,332.822,320.748,327.038,324.863,320.955z"/>
<path style="fill:#C3E4ED;" d="M305.89,255.529c0,43.051-34.902,77.951-77.955,77.951s-77.955-34.899-77.955-77.951
	s34.902-77.951,77.955-77.951S305.89,212.478,305.89,255.529z"/>
<path style="fill:#DCF3F9;" d="M274.62,193.099c12.156,9.104,21.553,21.677,26.749,36.246l-99.62,99.614
	c-14.57-5.196-27.145-14.593-36.248-26.748L274.62,193.099z M154.501,281.714c1.304,3.659,2.871,7.19,4.684,10.574l105.51-105.504
	c-3.383-1.812-6.915-3.378-10.574-4.684L154.501,281.714z"/>
<path style="fill:#FED766;" d="M305.882,255.877h-66.463c-6.151,0-11.136-4.985-11.136-11.136v-67.154
	c19.834,0.088,39.642,7.691,54.775,22.823C298.368,215.719,305.97,235.812,305.882,255.877z"/>
<path style="fill:#FFFFFF;" d="M228.282,197.239c12.301,0,22.273,9.972,22.273,22.272s-9.972,22.272-22.273,22.272
	s-22.273-9.972-22.273-22.272C206.01,207.211,215.982,197.239,228.282,197.239z"/>
<g>
</g>
<g>
</g>
<g>
</g>
<g>
</g>
<g>
</g>
<g>
</g>
<g>
</g>
<g>
</g>
<g>
</g>
<g>
</g>
<g>
</g>
<g>
</g>
<g>
</g>
<g>
</g>
<g>
</g>
</svg>
